<svg xmlns="http://www.w3.org/2000/svg" width="36" height="36" viewBox="0 0 36 36">
  <g id="グループ化_27" data-name="グループ化 27" transform="translate(-242 -527)">
    <rect id="長方形_105" data-name="長方形 105" width="36" height="36" rx="8" transform="translate(242 527)" fill="#f5f5f5"/>
    <g id="logo_googleg_48dp" transform="translate(250 535)">
      <path id="Shape" d="M18.2,9.324a11.012,11.012,0,0,0-.174-1.96H9v3.707h5.158a4.409,4.409,0,0,1-1.912,2.892v2.4h3.1A9.346,9.346,0,0,0,18.2,9.324Z" transform="translate(0.583 0.477)" fill="#4285f4" fill-rule="evenodd"/>
      <path id="Shape-2" data-name="Shape" d="M9.521,18.473a9.149,9.149,0,0,0,6.342-2.322l-3.1-2.4A5.782,5.782,0,0,1,4.159,10.71H.957v2.483a9.58,9.58,0,0,0,8.564,5.28Z" transform="translate(0.062 0.694)" fill="#34a853" fill-rule="evenodd"/>
      <path id="Shape-3" data-name="Shape" d="M4.221,11.083a5.666,5.666,0,0,1,0-3.642V4.958h-3.2a9.6,9.6,0,0,0,0,8.608l3.2-2.483Z" transform="translate(0 0.321)" fill="#fbbc05" fill-rule="evenodd"/>
      <path id="Shape-4" data-name="Shape" d="M9.521,3.812a5.177,5.177,0,0,1,3.663,1.433L15.933,2.5A9.21,9.21,0,0,0,9.521,0,9.58,9.58,0,0,0,.957,5.28l3.2,2.483A5.711,5.711,0,0,1,9.521,3.812Z" transform="translate(0.062)" fill="#ea4335" fill-rule="evenodd"/>
      <path id="Shape-5" data-name="Shape" d="M0,0H19.167V19.167H0Z" fill="none" fill-rule="evenodd"/>
    </g>
  </g>
</svg>
